<?xml version="1.0" standalone="no"?>
<!DOCTYPE svg PUBLIC "-//W3C//DTD SVG 20010904//EN"
 "http://www.w3.org/TR/2001/REC-SVG-20010904/DTD/svg10.dtd">
<svg version="1.0" xmlns="http://www.w3.org/2000/svg"
 width="260.000000pt" height="260.000000pt" viewBox="0 0 260.000000 260.000000"
 preserveAspectRatio="xMidYMid meet">
<metadata>
Created by potrace 1.11, written by Peter Selinger 2001-2013
</metadata>
<g transform="translate(0.000000,260.000000) scale(0.100000,-0.100000)"
fill="#000000" stroke="none">
<path d="M1135 2520 c-536 -84 -942 -475 -1046 -1005 -18 -91 -18 -349 0 -440
76 -388 322 -714 666 -884 186 -92 333 -126 550 -126 170 0 219 8 375 55 417
127 741 488 836 930 26 118 26 372 0 490 -105 493 -472 857 -971 967 -84 18
-326 26 -410 13z m465 -555 c102 -26 236 -97 309 -162 l64 -58 -118 -105 c-64
-58 -121 -107 -126 -108 -5 -2 -26 11 -47 30 -83 75 -171 108 -287 108 -171 0
-288 -74 -357 -225 -33 -73 -32 -235 2 -320 32 -81 114 -163 195 -196 78 -31
231 -33 313 -5 l52 18 0 189 0 189 168 -2 167 -3 3 -280 2 -281 -54 -33 c-171
-103 -417 -156 -613 -132 -186 23 -336 92 -452 211 -110 111 -171 239 -192
401 -27 215 43 421 191 569 113 112 231 174 395 206 89 17 296 11 385 -11z"/>
</g>
</svg>
